<svg width="568" height="245" viewBox="0 0 568 245" fill="none" xmlns="http://www.w3.org/2000/svg">
<path d="M190.217 218.416C212.551 186.75 105.217 -53.5836 3.21739 12.4163C-6.69311 64.4465 11.9986 174.487 155.217 225.759C166.884 229.311 190.217 232.816 190.217 218.416Z" fill="#ECC500"/>
<path d="M190.217 236.416C177.797 233.24 166.145 229.671 155.217 225.759L190.217 236.416ZM155.217 225.759C11.9986 174.487 -6.69311 64.4465 3.21739 12.4163C105.217 -53.5836 212.551 186.75 190.217 218.416C190.217 232.816 166.884 229.311 155.217 225.759Z" stroke="black"/>
<path d="M105.217 152.416C99.8841 152.083 88.0174 136.616 83.2174 77.4164L105.217 128.416V152.416Z" fill="black" stroke="black"/>
<g filter="url(#filter0_dd)">
<path d="M374.173 218.416C351.839 186.75 459.173 -53.5836 561.172 12.4163C571.083 64.4465 552.391 174.487 409.173 225.759C397.506 229.311 374.173 232.816 374.173 218.416Z" fill="#ECC500"/>
<path d="M374.173 236.416C386.593 233.24 398.245 229.671 409.173 225.759L374.173 236.416ZM409.173 225.759C552.391 174.487 571.083 64.4465 561.172 12.4163C459.172 -53.5836 351.839 186.75 374.173 218.416C374.173 232.816 397.506 229.311 409.173 225.759Z" stroke="black"/>
</g>
<g filter="url(#filter1_dd)">
<path d="M459.172 152.416C464.506 152.083 476.372 136.616 481.172 77.4164L459.172 128.416V152.416Z" fill="black"/>
<path d="M459.172 152.416C464.506 152.083 476.372 136.616 481.172 77.4164L459.172 128.416V152.416Z" stroke="black"/>
</g>
<defs>
<filter id="filter0_dd" x="366.695" y="0.499916" width="201.194" height="244.4" filterUnits="userSpaceOnUse" color-interpolation-filters="sRGB">
<feFlood flood-opacity="0" result="BackgroundImageFix"/>
<feColorMatrix in="SourceAlpha" type="matrix" values="0 0 0 0 0 0 0 0 0 0 0 0 0 0 0 0 0 0 127 0"/>
<feOffset dy="4"/>
<feGaussianBlur stdDeviation="2"/>
<feColorMatrix type="matrix" values="0 0 0 0 0 0 0 0 0 0 0 0 0 0 0 0 0 0 0.25 0"/>
<feBlend mode="normal" in2="BackgroundImageFix" result="effect1_dropShadow"/>
<feColorMatrix in="SourceAlpha" type="matrix" values="0 0 0 0 0 0 0 0 0 0 0 0 0 0 0 0 0 0 127 0"/>
<feOffset dy="4"/>
<feGaussianBlur stdDeviation="2"/>
<feColorMatrix type="matrix" values="0 0 0 0 0 0 0 0 0 0 0 0 0 0 0 0 0 0 0.25 0"/>
<feBlend mode="normal" in2="effect1_dropShadow" result="effect2_dropShadow"/>
<feBlend mode="normal" in="SourceGraphic" in2="effect2_dropShadow" result="shape"/>
</filter>
<filter id="filter1_dd" x="454.672" y="77.2183" width="30.9984" height="83.7298" filterUnits="userSpaceOnUse" color-interpolation-filters="sRGB">
<feFlood flood-opacity="0" result="BackgroundImageFix"/>
<feColorMatrix in="SourceAlpha" type="matrix" values="0 0 0 0 0 0 0 0 0 0 0 0 0 0 0 0 0 0 127 0"/>
<feOffset dy="4"/>
<feGaussianBlur stdDeviation="2"/>
<feColorMatrix type="matrix" values="0 0 0 0 0 0 0 0 0 0 0 0 0 0 0 0 0 0 0.25 0"/>
<feBlend mode="normal" in2="BackgroundImageFix" result="effect1_dropShadow"/>
<feColorMatrix in="SourceAlpha" type="matrix" values="0 0 0 0 0 0 0 0 0 0 0 0 0 0 0 0 0 0 127 0"/>
<feOffset dy="4"/>
<feGaussianBlur stdDeviation="2"/>
<feColorMatrix type="matrix" values="0 0 0 0 0 0 0 0 0 0 0 0 0 0 0 0 0 0 0.25 0"/>
<feBlend mode="normal" in2="effect1_dropShadow" result="effect2_dropShadow"/>
<feBlend mode="normal" in="SourceGraphic" in2="effect2_dropShadow" result="shape"/>
</filter>
</defs>
</svg>
