<svg width="2396" height="1505" viewBox="0 0 2396 1505" fill="none" xmlns="http://www.w3.org/2000/svg">
<path d="M495.5 83L500.552 98.2016H516.899L503.674 107.597L508.725 122.798L495.5 113.403L482.275 122.798L487.326 107.597L474.101 98.2016H490.448L495.5 83Z" fill="#C4C4C4"/>
<path d="M473.5 225L478.552 240.202H494.899L481.674 249.597L486.725 264.798L473.5 255.403L460.275 264.798L465.326 249.597L452.101 240.202H468.448L473.5 225Z" fill="#C4C4C4"/>
<path d="M1439.5 225L1444.55 240.202H1460.9L1447.67 249.597L1452.73 264.798L1439.5 255.403L1426.27 264.798L1431.33 249.597L1418.1 240.202H1434.45L1439.5 225Z" fill="#C4C4C4"/>
<path d="M630.5 203L635.552 218.202H651.899L638.674 227.597L643.725 242.798L630.5 233.403L617.275 242.798L622.326 227.597L609.101 218.202H625.448L630.5 203Z" fill="#C4C4C4"/>
<path d="M630.5 102L635.552 117.202H651.899L638.674 126.597L643.725 141.798L630.5 132.403L617.275 141.798L622.326 126.597L609.101 117.202H625.448L630.5 102Z" fill="#C4C4C4"/>
<path d="M1650.5 203L1655.55 218.202H1671.9L1658.67 227.597L1663.73 242.798L1650.5 233.403L1637.27 242.798L1642.33 227.597L1629.1 218.202H1645.45L1650.5 203Z" fill="#C4C4C4"/>
<path d="M1740.5 420L1745.55 435.202H1761.9L1748.67 444.597L1753.73 459.798L1740.5 450.403L1727.27 459.798L1732.33 444.597L1719.1 435.202H1735.45L1740.5 420Z" fill="#C4C4C4"/>
<path d="M1590.5 323L1595.55 338.202H1611.9L1598.67 347.597L1603.73 362.798L1590.5 353.403L1577.27 362.798L1582.33 347.597L1569.1 338.202H1585.45L1590.5 323Z" fill="#C4C4C4"/>
<path d="M1785.5 323L1790.55 338.202H1806.9L1793.67 347.597L1798.73 362.798L1785.5 353.403L1772.27 362.798L1777.33 347.597L1764.1 338.202H1780.45L1785.5 323Z" fill="#C4C4C4"/>
<path d="M1718.5 269L1723.55 284.202H1739.9L1726.67 293.597L1731.73 308.798L1718.5 299.403L1705.27 308.798L1710.33 293.597L1697.1 284.202H1713.45L1718.5 269Z" fill="#C4C4C4"/>
<path d="M894.5 83L899.552 98.2016H915.899L902.674 107.597L907.725 122.798L894.5 113.403L881.275 122.798L886.326 107.597L873.101 98.2016H889.448L894.5 83Z" fill="#C4C4C4"/>
<path d="M872.5 225L877.552 240.202H893.899L880.674 249.597L885.725 264.798L872.5 255.403L859.275 264.798L864.326 249.597L851.101 240.202H867.448L872.5 225Z" fill="#C4C4C4"/>
<path d="M1229.5 247L1234.55 262.202H1250.9L1237.67 271.597L1242.73 286.798L1229.5 277.403L1216.27 286.798L1221.33 271.597L1208.1 262.202H1224.45L1229.5 247Z" fill="#C4C4C4"/>
<path d="M1252.5 127L1257.55 142.202H1273.9L1260.67 151.597L1265.73 166.798L1252.5 157.403L1239.27 166.798L1244.33 151.597L1231.1 142.202H1247.45L1252.5 127Z" fill="#C4C4C4"/>
<path d="M1012.5 181L1017.55 196.202H1033.9L1020.67 205.597L1025.73 220.798L1012.5 211.403L999.275 220.798L1004.33 205.597L991.101 196.202H1007.45L1012.5 181Z" fill="#C4C4C4"/>
<line x1="102.994" y1="1272.06" x2="2275.99" y2="1265" stroke="white" stroke-width="4"/>
<rect x="272" y="798" width="18" height="469" fill="#C4C4C4"/>
<ellipse cx="281" cy="831.5" rx="24" ry="24.5" fill="#F8C96F"/>
<rect x="249" y="798" width="64" height="27" fill="#C4C4C4"/>
<rect x="631" y="798" width="18" height="469" fill="#C4C4C4"/>
<ellipse cx="640" cy="831.5" rx="24" ry="24.5" fill="#F8C96F"/>
<rect x="608" y="798" width="64" height="27" fill="#C4C4C4"/>
<rect x="990" y="798" width="18" height="469" fill="#C4C4C4"/>
<ellipse cx="999" cy="831.5" rx="24" ry="24.5" fill="#F8C96F"/>
<rect x="967" y="798" width="64" height="27" fill="#C4C4C4"/>
<rect x="1708" y="798" width="18" height="469" fill="#C4C4C4"/>
<ellipse cx="1717" cy="831.5" rx="24" ry="24.5" fill="#F8C96F"/>
<rect x="1685" y="798" width="64" height="27" fill="#C4C4C4"/>
<rect x="1349" y="798" width="18" height="469" fill="#C4C4C4"/>
<ellipse cx="1358" cy="831.5" rx="24" ry="24.5" fill="#F8C96F"/>
<rect x="1326" y="798" width="64" height="27" fill="#C4C4C4"/>
<rect x="2067" y="798" width="18" height="469" fill="#C4C4C4"/>
<ellipse cx="2076" cy="831.5" rx="24" ry="24.5" fill="#F8C96F"/>
<rect x="2044" y="798" width="64" height="27" fill="#C4C4C4"/>
<circle cx="2074.5" cy="1184.5" r="10.5" fill="#F8C96F"/>
<path d="M1770 1184.5C1770 1190.3 1765.3 1195 1759.5 1195C1753.7 1195 1749 1190.3 1749 1184.5C1749 1178.7 1753.7 1174 1759.5 1174C1765.3 1174 1770 1178.7 1770 1184.5Z" fill="#C50000"/>
<rect x="1757.5" y="1099.5" width="316" height="120" fill="#3779B6" stroke="black"/>
<path d="M1794.09 1099L1734 1147H1838V1099H1794.09Z" fill="#E2E1D8" stroke="#ECECDC"/>
<path d="M1992 1099L2044 1146.5H1954V1099H1992Z" fill="#E2E1D8" stroke="#ECECDC"/>
<circle cx="1823.5" cy="1229.5" r="43" fill="#C4C4C4" stroke="black" stroke-width="3"/>
<circle cx="1999.5" cy="1229.5" r="43" fill="#C4C4C4" stroke="black" stroke-width="3"/>
<path d="M1959 1080H2075V1166L1959 1080Z" fill="black" stroke="black"/>
<path d="M1838 1099H1734V1166L1838 1099Z" fill="black" stroke="black"/>
<circle cx="1823" cy="1232" r="12" fill="black"/>
<circle cx="1999" cy="1232" r="12" fill="black"/>
<line x1="1914.5" y1="1099" x2="1914.5" y2="1220" stroke="black"/>
<rect x="1959" y="1160" width="19" height="6" fill="black"/>
<rect x="2063.5" y="1191.5" width="20" height="34" rx="10" fill="#3679B6" stroke="black"/>
<rect x="1753.5" y="1191.5" width="20" height="34" rx="10" fill="#3679B6" stroke="black"/>
</svg>
