<svg width="1785" height="902" viewBox="0 0 1785 902" fill="none" xmlns="http://www.w3.org/2000/svg">
<rect x="815.776" y="106.5" width="122.319" height="176.809" rx="61.1596" fill="#3679B6" stroke="black"/>
<rect x="293.321" y="534.032" width="1175.83" height="144.828" fill="#7A4839"/>
<rect x="284.5" y="188.235" width="1206.38" height="491.56" rx="179.5" fill="#3679B6" stroke="black"/>
<path d="M290.5 537.5H299C305.8 621.5 401.167 669.833 448 683.5H290.5V537.5Z" fill="black"/>
<path d="M290.5 537.5H299C305.8 621.5 401.167 669.833 448 683.5M290.5 537.5C295.333 579 333.6 666.3 448 683.5M290.5 537.5V683.5H448" stroke="black"/>
<path d="M1490.5 538H1482C1475.2 622 1379.83 670.333 1333 684H1490.5V538Z" fill="black"/>
<path d="M1490.5 538H1482C1475.2 622 1379.83 670.333 1333 684M1490.5 538C1485.67 579.5 1447.4 666.8 1333 684M1490.5 538V684H1333" stroke="black"/>
<rect x="293.821" y="195.405" width="1185.59" height="482.956" rx="179.5" fill="#C4C4C4" fill-opacity="0.66" stroke="black"/>
<rect x="327.518" y="216.914" width="1109.59" height="398.353" rx="179.5" fill="black" fill-opacity="0.66" stroke="black"/>
<path d="M409.112 447.279L412.733 458.178H424.454L414.972 464.914L418.594 475.813L409.112 469.077L399.629 475.813L403.251 464.914L393.769 458.178H405.49L409.112 447.279Z" fill="#C4C4C4"/>
<path d="M467.903 315.356L471.525 326.255H483.246L473.763 332.991L477.385 343.89L467.903 337.154L458.421 343.89L462.043 332.991L452.561 326.255H464.281L467.903 315.356Z" fill="#C4C4C4"/>
<path d="M1160.5 315.356L1164.12 326.255H1175.84L1166.36 332.991L1169.98 343.89L1160.5 337.154L1151.02 343.89L1154.64 332.991L1145.16 326.255H1156.88L1160.5 315.356Z" fill="#C4C4C4"/>
<path d="M580.468 299.582L584.09 310.481H595.81L586.328 317.217L589.95 328.117L580.468 321.381L570.986 328.117L574.608 317.217L565.125 310.481H576.846L580.468 299.582Z" fill="#C4C4C4"/>
<path d="M580.468 227.168L584.09 238.067H595.81L586.328 244.803L589.95 255.703L580.468 248.966L570.986 255.703L574.608 244.803L565.125 238.067H576.846L580.468 227.168Z" fill="#C4C4C4"/>
<path d="M1311.78 299.582L1315.4 310.481H1327.12L1317.64 317.217L1321.26 328.117L1311.78 321.381L1302.3 328.117L1305.92 317.217L1296.44 310.481H1308.16L1311.78 299.582Z" fill="#C4C4C4"/>
<path d="M1376.31 455.165L1379.93 466.064H1391.65L1382.17 472.8L1385.79 483.7L1376.31 476.964L1366.82 483.7L1370.45 472.8L1360.96 466.064H1372.68L1376.31 455.165Z" fill="#C4C4C4"/>
<path d="M1268.76 385.619L1272.38 396.518H1284.1L1274.62 403.254L1278.24 414.153L1268.76 407.417L1259.28 414.153L1262.9 403.254L1253.42 396.518H1265.14L1268.76 385.619Z" fill="#C4C4C4"/>
<path d="M1408.57 385.619L1412.19 396.518H1423.91L1414.43 403.254L1418.05 414.153L1408.57 407.417L1399.09 414.153L1402.71 403.254L1393.23 396.518H1404.95L1408.57 385.619Z" fill="#C4C4C4"/>
<path d="M1360.53 346.903L1364.15 357.802H1375.88L1366.39 364.538L1370.02 375.437L1360.53 368.701L1351.05 375.437L1354.67 364.538L1345.19 357.802H1356.91L1360.53 346.903Z" fill="#C4C4C4"/>
<path d="M903.822 438.675L907.444 449.574H919.164L909.682 456.31L913.304 467.209L903.822 460.473L894.34 467.209L897.962 456.31L888.48 449.574H900.2L903.822 438.675Z" fill="#C4C4C4"/>
<path d="M753.975 315.356L757.597 326.255H769.317L759.835 332.991L763.457 343.89L753.975 337.154L744.493 343.89L748.115 332.991L738.633 326.255H750.353L753.975 315.356Z" fill="#C4C4C4"/>
<path d="M1009.93 331.129L1013.56 342.028H1025.28L1015.79 348.764L1019.42 359.663L1009.93 352.927L1000.45 359.663L1004.07 348.764L994.592 342.028H1006.31L1009.93 331.129Z" fill="#C4C4C4"/>
<path d="M1026.42 245.093L1030.05 255.992H1041.77L1032.28 262.728L1035.91 273.627L1026.42 266.891L1016.94 273.627L1020.56 262.728L1011.08 255.992H1022.8L1026.42 245.093Z" fill="#C4C4C4"/>
<path d="M854.351 283.809L857.973 294.708H869.693L860.211 301.444L863.833 312.343L854.351 305.607L844.869 312.343L848.491 301.444L839.009 294.708H850.729L854.351 283.809Z" fill="#C4C4C4"/>
<rect x="1202.44" y="576.298" width="59.5087" height="57.3577" rx="28.6789" transform="rotate(27.4853 1202.44 576.298)" fill="#FFDFC2"/>
<path d="M1190.42 435.266C1171.6 471.453 1165.07 509.666 1169.73 542.182C1174.38 574.7 1190.2 601.478 1216.01 614.908C1241.83 628.338 1272.84 625.919 1302.13 611.065C1331.43 596.211 1358.98 568.938 1377.8 532.75C1396.63 496.563 1403.15 458.35 1398.5 425.834C1393.84 393.317 1378.03 366.538 1352.21 353.108C1326.4 339.678 1295.39 342.097 1266.09 356.951C1236.8 371.805 1209.25 399.079 1190.42 435.266Z" fill="#FFE0C2" stroke="black"/>
<ellipse rx="18.2828" ry="0.716972" transform="matrix(-0.887129 -0.461521 -0.461521 0.887129 1342.25 487.988)" fill="black"/>
<path d="M1373.26 474.216C1350.48 462.691 1334.34 464.879 1329.11 467.414" stroke="black" stroke-width="2"/>
<ellipse cx="1255.75" cy="442.986" rx="18.2828" ry="0.716972" transform="rotate(27.4853 1255.75 442.986)" fill="black"/>
<path d="M1249.23 409.691C1271.74 421.726 1279.22 436.201 1280.14 441.935" stroke="black" stroke-width="2"/>
<ellipse rx="6.09426" ry="2.86789" transform="matrix(-0.887129 -0.461521 -0.461521 0.887129 1288.41 506.044)" fill="black"/>
<ellipse rx="6.09426" ry="2.86789" transform="matrix(-0.887129 -0.461521 -0.461521 0.887129 1273.78 498.433)" fill="black"/>
<path fill-rule="evenodd" clip-rule="evenodd" d="M1230.11 557.786C1223.8 553.232 1220.56 547.129 1222.72 542.989C1225.28 538.071 1234.47 537.788 1243.25 542.357C1247.27 544.449 1250.51 547.196 1252.59 550.032C1256.11 550.11 1260.22 551.185 1264.24 553.277C1273.02 557.846 1278.07 565.536 1275.51 570.454C1273.58 574.158 1267.89 575.233 1261.45 573.586C1258.42 576.18 1250.62 575.285 1242.79 571.211C1235.27 567.302 1230.17 561.733 1230.11 557.786Z" fill="#EC8888"/>
<path d="M1274.21 571.395L1248.25 560.716L1223.01 544.758" stroke="#5E5C5C"/>
<path d="M1263.62 382.023C1303.91 365.482 1357.8 415.39 1379.7 442.412C1401.46 436.589 1334.63 610.168 1301.46 676.932C1289.73 689.928 1282.94 698.871 1284.3 701.914C1285.86 705.41 1292.41 695.146 1301.46 676.932C1352.58 620.264 1497.51 486.551 1469.87 429.109C1435.89 358.494 1362 336.624 1351.63 323.149C1341.27 309.674 1231.46 328.113 1170.75 394.321C1122.18 447.287 1118.9 541.375 1123.32 581.799C1153.3 522.099 1223.34 398.565 1263.62 382.023Z" fill="#F8FB74" stroke="black"/>
<rect x="1115.48" y="573.648" width="209.192" height="127.004" rx="63.5021" transform="rotate(27.4853 1115.48 573.648)" fill="#FFDFC2" stroke="black"/>
<rect x="1056.18" y="678.144" width="302.562" height="128.338" fill="black"/>
</svg>
